<svg width="165" height="127" viewBox="0 0 165 127" fill="none" xmlns="http://www.w3.org/2000/svg">
<path d="M139.705 11.505C139.659 11.4166 139.583 11.3473 139.491 11.3095C128.829 6.42423 117.576 2.94064 106.016 0.945923C105.911 0.926425 105.803 0.940491 105.706 0.98612C105.61 1.03175 105.53 1.10662 105.479 1.20008C103.946 3.9771 102.556 6.82956 101.311 9.74657C88.8502 7.85763 76.1751 7.85763 63.714 9.74657C62.4615 6.82215 61.0483 3.96898 59.4809 1.20008C59.4272 1.10865 59.3471 1.03551 59.2511 0.990172C59.1551 0.944839 59.0477 0.929419 58.9428 0.945923C47.3816 2.93645 36.1288 6.4203 25.4676 11.3098C25.3763 11.3484 25.2993 11.4144 25.2472 11.4986C3.92689 43.2932 -1.91354 74.306 0.951574 104.935C0.959635 105.01 0.98273 105.083 1.01949 105.149C1.05624 105.215 1.10591 105.272 1.16554 105.319C13.5801 114.498 27.466 121.505 42.2307 126.04C42.3346 126.071 42.4457 126.069 42.5488 126.036C42.652 126.002 42.7423 125.937 42.8076 125.851C45.9788 121.542 48.7886 116.979 51.2086 112.209C51.2419 112.144 51.2609 112.072 51.2643 111.999C51.2678 111.926 51.2557 111.852 51.2287 111.784C51.2018 111.716 51.1607 111.654 51.1081 111.603C51.0555 111.551 50.9926 111.512 50.9236 111.487C46.4927 109.794 42.203 107.753 38.0949 105.383C38.0203 105.339 37.9576 105.278 37.9124 105.204C37.8672 105.13 37.8409 105.047 37.8358 104.96C37.8307 104.874 37.8469 104.788 37.8831 104.709C37.9193 104.631 37.9742 104.562 38.0432 104.51C38.9052 103.865 39.7677 103.194 40.5908 102.517C40.664 102.457 40.7525 102.418 40.8464 102.405C40.9402 102.393 41.0358 102.407 41.1223 102.445C68.0363 114.711 97.1744 114.711 123.77 102.445C123.857 102.404 123.953 102.388 124.048 102.4C124.144 102.411 124.234 102.45 124.308 102.51C125.131 103.188 125.994 103.865 126.862 104.51C126.931 104.562 126.987 104.63 127.024 104.708C127.06 104.786 127.077 104.872 127.073 104.959C127.068 105.045 127.043 105.129 126.998 105.203C126.953 105.277 126.891 105.339 126.817 105.383C122.718 107.773 118.424 109.812 113.982 111.48C113.913 111.506 113.85 111.547 113.798 111.599C113.746 111.651 113.705 111.713 113.679 111.782C113.652 111.851 113.641 111.925 113.645 111.998C113.649 112.072 113.668 112.144 113.702 112.209C116.163 116.953 118.969 121.51 122.097 125.843C122.16 125.932 122.25 125.999 122.354 126.034C122.457 126.069 122.569 126.071 122.674 126.039C137.465 121.519 151.375 114.512 163.805 105.319C163.866 105.275 163.916 105.218 163.953 105.153C163.99 105.088 164.012 105.016 164.019 104.941C167.449 69.5312 158.277 38.7725 139.705 11.505ZM55.228 86.2851C47.1249 86.2851 40.4482 78.8594 40.4482 69.7398C40.4482 60.6202 46.9954 53.194 55.228 53.194C63.5249 53.194 70.137 60.6847 70.0075 69.7393C70.0075 78.8594 63.4601 86.2851 55.228 86.2851ZM109.873 86.2851C101.771 86.2851 95.0938 78.8594 95.0938 69.7398C95.0938 60.6202 101.641 53.194 109.873 53.194C118.171 53.194 124.783 60.6847 124.653 69.7393C124.653 78.8594 118.171 86.2851 109.873 86.2851Z" fill="#5865F2"/>
</svg>
