<svg width="128" height="41" viewBox="0 0 128 41" fill="none" xmlns="http://www.w3.org/2000/svg">
<path d="M0.464723 19.4956C0.208064 19.4956 0 19.2887 0 19.0335C0 18.7837 0.200053 18.5822 0.44974 18.5556C1.01603 18.4955 1.42113 18.3536 1.66504 18.1301C1.93638 17.8922 2.07205 17.3715 2.07205 16.5677V8.74361C2.07205 7.97268 1.94872 7.4683 1.70204 7.23046C1.47994 7.02158 1.13051 6.88843 0.653736 6.83098C0.401211 6.80056 0.197338 6.59785 0.197338 6.34488C0.197338 6.09178 0.40069 5.88585 0.654788 5.87144C1.40859 5.82869 2.18639 5.72146 2.98821 5.54975C3.34418 5.47352 3.68776 5.73794 3.68776 6.10006C3.68776 6.62716 4.39636 6.88473 4.80333 6.54704C5.73684 5.77245 6.75868 5.38515 7.86887 5.38515C9.22373 5.38515 10.2582 5.949 10.9722 7.07671C11.2225 7.47208 11.8267 7.54711 12.1412 7.20004C13.2376 5.99011 14.457 5.38515 15.7994 5.38515C16.9094 5.38515 17.8509 5.81572 18.6238 6.67687C19.4296 7.57902 19.8325 8.78462 19.8325 10.2937V16.5677C19.8325 17.3715 19.9805 17.9086 20.2765 18.1793C20.498 18.3743 20.8745 18.4997 21.4058 18.5556C21.6554 18.5819 21.8552 18.7835 21.8552 19.0332C21.8552 19.2886 21.647 19.4956 21.3902 19.4956H16.5878C16.3295 19.4956 16.1201 19.2874 16.1201 19.0305C16.1201 18.7815 16.3179 18.58 16.5663 18.5489C17.0891 18.4836 17.4707 18.344 17.7111 18.1301C17.9825 17.8922 18.1181 17.3715 18.1181 16.5677V11.0318C18.1181 9.64576 17.8632 8.60419 17.3534 7.90707C16.8437 7.20175 16.1406 6.84909 15.2444 6.84909C13.992 6.84909 12.8571 7.74434 11.8399 9.53482C11.7912 9.62052 11.7663 9.71787 11.7663 9.8163V16.5677C11.7663 17.3305 11.9102 17.8512 12.198 18.1301C12.4145 18.346 12.7959 18.4863 13.3422 18.5508C13.5909 18.5802 13.789 18.7818 13.789 19.0309C13.789 19.2876 13.5798 19.4956 13.3218 19.4956H8.6197C8.3617 19.4956 8.15254 19.2876 8.15254 19.031C8.15254 18.7819 8.35086 18.5806 8.59932 18.5489C9.15486 18.4781 9.54451 18.318 9.76825 18.0686C10.0067 17.7979 10.1259 17.2976 10.1259 16.5677V11.0318C10.1259 8.24333 9.16801 6.84909 7.25219 6.84909C5.99961 6.84909 4.86857 7.74456 3.85906 9.53549C3.81099 9.62077 3.78643 9.71749 3.78643 9.81525V16.5677C3.78643 17.3715 3.93443 17.9086 4.23044 18.1793C4.4498 18.3659 4.81091 18.4894 5.31378 18.5498C5.56228 18.5796 5.75981 18.7814 5.75981 19.0303C5.75981 19.2873 5.55033 19.4956 5.29192 19.4956H0.464723Z" fill="#A1D2FF"/>
<path d="M25.6181 12.5573C25.5088 12.5573 25.4201 12.6454 25.4201 12.7541C25.4201 14.0745 25.6833 15.2145 26.2095 16.1741C27.0893 17.7815 28.4419 18.5853 30.2673 18.5853C32.0938 18.5853 33.6454 17.7426 34.9222 16.0574C35.1395 15.7705 35.5646 15.725 35.8196 15.9794C36.0003 16.1597 36.0384 16.4393 35.902 16.6547C34.4885 18.8849 32.5569 20 30.1069 20C27.8375 20 26.0821 19.1512 24.8405 17.4535C23.9113 16.1823 23.4468 14.6117 23.4468 12.7418C23.4468 10.8145 23.9648 9.17418 25.0008 7.82096C26.2588 6.19709 27.9157 5.38515 29.9713 5.38515C31.4102 5.38515 32.6641 5.79112 33.733 6.60305C34.9335 7.5052 35.7146 8.73951 36.0764 10.306C36.208 10.8719 36.2738 11.4542 36.2738 12.0529C36.2738 12.3314 36.0467 12.5573 35.7666 12.5573H25.6181ZM33.5354 11.3516C33.8714 11.3516 34.1415 11.072 34.1056 10.7399C33.9874 9.64391 33.6946 8.78986 33.2273 8.17772C32.4133 7.10334 31.3362 6.56615 29.9959 6.56615C28.7379 6.56615 27.6649 7.10334 26.7768 8.17772C26.1958 8.87852 25.798 9.71773 25.5834 10.6954C25.5076 11.0404 25.7842 11.3516 26.1393 11.3516H33.5354Z" fill="#A1D2FF"/>
<path d="M49.4827 19.4956C49.2765 19.4956 49.1003 19.348 49.0652 19.1459C49.0029 18.7869 48.5259 18.6588 48.2449 18.8928C47.3584 19.6309 46.209 20 44.7968 20C42.5767 20 40.8953 19.143 39.7523 17.4289C38.8972 16.1413 38.4696 14.501 38.4696 12.508C38.4696 10.6299 38.9877 9.02656 40.0237 7.69794C41.2324 6.15608 42.7659 5.38515 44.6241 5.38515C45.7753 5.38515 46.8154 5.7173 47.7445 6.38162C48.1389 6.66079 48.9532 6.39031 48.9532 5.90888V3.04776C48.9532 2.28503 48.8176 1.81345 48.5462 1.63302C48.3114 1.4677 47.8301 1.35155 47.1022 1.28459C46.8539 1.26173 46.6592 1.05797 46.6592 0.809896C46.6592 0.5511 46.8702 0.341983 47.1304 0.335214C48.1193 0.309483 49.0663 0.202208 49.9714 0.013391C50.35 -0.0655889 50.717 0.214448 50.717 0.599165V16.8507C50.717 17.4412 50.8732 17.8717 51.1856 18.1424C51.4163 18.3521 51.8595 18.4893 52.5154 18.5539C52.7644 18.5785 52.9617 18.7812 52.9617 19.0301C52.9617 19.2872 52.7521 19.4956 52.4935 19.4956H49.4827ZM44.9201 6.79989C43.8183 6.79989 42.8399 7.26736 41.9847 8.20232C40.9734 9.30951 40.4677 10.7447 40.4677 12.508C40.4677 14.0909 40.7925 15.4277 41.442 16.5185C42.2972 17.9456 43.436 18.6591 44.8585 18.6591C45.9767 18.6591 46.9017 18.3187 47.6335 17.638C48.1844 17.1131 48.5545 16.3873 48.7436 15.4605C48.8998 14.6896 48.9779 13.7177 48.9779 12.5449C48.9779 10.6176 48.6367 9.22339 47.9542 8.36225C47.132 7.32067 46.1206 6.79989 44.9201 6.79989Z" fill="#A1D2FF"/>
<path d="M65.616 19.4956C65.32 19.4956 65.0701 19.2771 65.0322 18.9852L65.017 18.869C64.9505 18.3568 64.2799 18.1623 63.8944 18.5083C62.7864 19.5028 61.5556 20 60.202 20C58.3602 20 57.0282 19.266 56.2059 17.7979C55.7126 16.9204 55.4659 15.805 55.4659 14.4518V8.58368C55.4659 7.83736 55.3138 7.35758 55.0096 7.14434C54.7968 7.00058 54.3405 6.89681 53.6407 6.83305C53.3916 6.81035 53.1965 6.60584 53.1965 6.35707C53.1965 6.09839 53.4066 5.88894 53.6665 5.88011C54.6082 5.84811 55.5519 5.73727 56.4976 5.5476C56.8718 5.47255 57.2296 5.7514 57.2296 6.13103V14.3534C57.2296 15.7394 57.5585 16.8056 58.2163 17.5519C58.7919 18.208 59.5812 18.5361 60.5844 18.5361C62.1474 18.5361 63.4956 17.6436 64.6288 15.8588C64.6866 15.7679 64.7161 15.662 64.7161 15.5545V8.58368C64.7161 7.81276 64.5476 7.32477 64.2105 7.11974C64.006 6.9906 63.5701 6.89526 62.9026 6.83372C62.6538 6.81077 62.4591 6.60627 62.4591 6.3577C62.4591 6.09872 62.6696 5.88901 62.9299 5.88147C63.9385 5.85224 64.8803 5.74652 65.7552 5.56431C66.1352 5.48519 66.5045 5.76569 66.5045 6.15174V16.1987C66.5045 17.1418 66.6443 17.7774 66.9239 18.1055C67.102 18.3161 67.4655 18.4607 68.0144 18.5393C68.2605 18.5745 68.4532 18.7767 68.4532 19.024C68.4532 19.2845 68.2409 19.4956 67.979 19.4956H65.616Z" fill="#A1D2FF"/>
<path d="M69.8598 15.0445C69.8598 14.7783 70.0768 14.5625 70.3444 14.5625C70.567 14.5625 70.7594 14.7138 70.8226 14.926C71.2064 16.2157 71.8352 17.1648 72.7088 17.7733C73.7038 18.4704 74.7316 18.819 75.7923 18.819C76.7872 18.819 77.5971 18.5771 78.222 18.0932C78.8222 17.6339 79.1223 17.068 79.1223 16.3955C79.1223 15.6656 78.7071 15.0382 77.8766 14.5133C77.3751 14.1934 76.6474 13.8654 75.6936 13.5291L74.9906 13.2708C72.9432 12.549 71.6194 11.8888 71.0191 11.2901C70.4271 10.6996 70.1311 9.92051 70.1311 8.95275C70.1311 7.91117 70.5628 7.04593 71.4261 6.35701C72.2319 5.7091 73.3502 5.38515 74.7809 5.38515C75.9814 5.38515 77.0914 5.76241 78.111 6.51694C78.2919 6.65636 78.4769 6.72607 78.666 6.72607C78.8356 6.72607 78.9629 6.57468 79.0477 6.2719C79.1078 6.0571 79.2899 5.88953 79.5141 5.88953C79.7609 5.88953 79.961 6.08851 79.961 6.33396V9.45432C79.961 9.75482 79.7161 9.99842 79.4139 9.99842C79.1686 9.99842 78.9557 9.83504 78.8748 9.6047C78.5898 8.79237 78.1666 8.12398 77.6053 7.59952C76.8653 6.91061 75.9403 6.56615 74.8302 6.56615C73.934 6.56615 73.2392 6.75478 72.7458 7.13204C72.2032 7.55031 71.9318 8.10801 71.9318 8.80512C71.9318 9.30541 72.1703 9.74418 72.6472 10.1214C73.0665 10.4413 73.9874 10.8514 75.4099 11.3516L76.2733 11.6592C78.0493 12.2825 79.2827 12.914 79.9734 13.5537C80.7052 14.2344 81.071 15.1448 81.071 16.2848C81.071 17.4412 80.59 18.3515 79.628 19.0158C78.6907 19.6719 77.482 20 76.0019 20C74.6452 20 73.4406 19.6473 72.3882 18.942L72.3265 18.9051C71.94 18.6427 71.6934 18.5114 71.5865 18.5114C71.345 18.5114 71.0973 18.845 70.8435 19.5121C70.767 19.7133 70.577 19.8524 70.3607 19.8524C70.084 19.8524 69.8598 19.6293 69.8598 19.3542V15.0445Z" fill="#A1D2FF"/>
<path d="M92.1341 10.6682C92.3485 10.6583 92.5172 10.4825 92.5172 10.2691C92.5172 9.07167 92.254 8.19412 91.7278 7.63643C91.4565 7.34938 91.0741 7.10744 90.5808 6.9106C89.997 6.68097 89.3926 6.56615 88.7677 6.56615C87.7646 6.56615 86.9382 6.72607 86.2887 7.04593C86.2248 7.07621 86.1652 7.10726 86.11 7.13909C85.81 7.31201 85.9567 7.67787 86.1454 7.96715C86.282 8.17662 86.3503 8.45184 86.3503 8.79282C86.3503 9.09627 86.2681 9.36282 86.1037 9.59245C85.8488 9.94511 85.4829 10.1214 85.006 10.1214C84.6277 10.1214 84.3112 9.97792 84.0563 9.69087C83.7849 9.37922 83.6493 8.98145 83.6493 8.49757C83.6493 7.70204 84.118 7.00492 85.0553 6.40622C86.1078 5.72551 87.3699 5.38515 88.8417 5.38515C90.2971 5.38515 91.514 5.7009 92.4925 6.33241C93.6683 7.09514 94.2562 8.58368 94.2562 10.7981V16.4693C94.2562 17.6339 94.5193 18.2162 95.0456 18.2162C95.346 18.2162 95.6329 18.0426 95.9063 17.6955C96.1535 17.3818 96.6431 17.322 96.8885 17.6371C97.0072 17.7897 97.0356 17.9951 96.952 18.1692C96.3816 19.3569 95.6269 19.9508 94.6879 19.9508C93.9621 19.9508 93.4193 19.6858 93.0593 19.1558C92.7328 18.6753 91.7347 18.4114 91.2745 18.7676C90.2556 19.5564 88.902 19.9508 87.2137 19.9508C85.7748 19.9508 84.6483 19.4382 83.8343 18.413C83.2751 17.6995 82.9956 16.8507 82.9956 15.8665C82.9956 14.3 83.7808 13.0739 85.3513 12.1882C86.8725 11.3188 88.9075 10.8227 91.4565 10.6996L92.1341 10.6682ZM92.5172 12.5347C92.5172 12.1992 92.2343 11.9324 91.8975 11.9501L91.5798 11.9668C89.4255 12.0816 87.7687 12.4588 86.6093 13.0985C85.4993 13.7054 84.9443 14.5953 84.9443 15.7681C84.9443 16.5308 85.1499 17.1377 85.561 17.5888C86.0379 18.1219 86.7491 18.3884 87.6947 18.3884C88.6238 18.3884 89.516 18.167 90.3711 17.7241C91.2756 17.2566 91.9087 16.6743 92.2705 15.9772C92.4349 15.6492 92.5172 15.3252 92.5172 15.0054V12.5347Z" fill="#A1D2FF"/>
<path d="M126.848 24.5085C129.481 21.0596 127.362 10.8209 122.906 7.42348C118.449 4.02601 108.02 4.68082 105.387 8.128C102.754 11.5752 104.278 15.384 112.204 21.435C120.13 27.486 124.217 27.9574 126.848 24.5085Z" fill="#A1D2FF"/>
<path d="M107.789 19.8165C107.512 19.5716 107.112 19.5662 106.81 19.7784C104.725 21.2432 102.282 22.1261 99.7336 22.3299C93.9723 22.8287 83.9958 24.9886 79.5202 33.0211C79.4629 33.1272 79.4494 33.2515 79.4824 33.3675C79.5154 33.4834 79.5924 33.582 79.6969 33.642C79.8014 33.7021 79.9253 33.719 80.0421 33.6892C80.1589 33.6593 80.2595 33.5851 80.3224 33.4822C84.4655 26.0702 94.4094 24.3337 99.8638 23.8606C102.712 23.6305 105.439 22.633 107.758 20.982C108.147 20.7054 108.146 20.1328 107.789 19.8165Z" fill="#A1D2FF"/>
<path d="M111.277 22.6573C110.901 22.3724 110.369 22.4215 110.037 22.7567C108.284 24.5262 106.109 25.8294 103.712 26.5399C102.982 26.7524 101.849 26.8502 100.536 26.965C95.767 27.3798 88.1698 28.2489 83.317 36.0381C83.2833 36.0907 83.2602 36.1495 83.2492 36.2111C83.2381 36.2727 83.2393 36.3359 83.2527 36.397C83.2797 36.5204 83.3546 36.6281 83.461 36.6963C83.5674 36.7645 83.6965 36.7876 83.82 36.7606C83.8811 36.7473 83.939 36.722 83.9903 36.6862C84.0417 36.6505 84.0855 36.605 84.1193 36.5523C88.5761 29.4197 95.9007 28.9209 100.669 28.506C102.063 28.3843 103.266 28.2798 104.142 28.0261C106.898 27.2072 109.387 25.6818 111.364 23.6066C111.627 23.331 111.576 22.8922 111.277 22.6573Z" fill="#A1D2FF"/>
<path d="M115.188 25.4338C114.848 25.2156 114.383 25.2862 114.134 25.6045C112.558 27.6233 110.263 29.8188 107.14 30.6178C106.203 30.8578 104.996 31.0481 103.597 31.2675C98.4239 32.08 90.9365 33.4959 87.3024 39.3601C87.2684 39.4142 87.2457 39.4748 87.2359 39.5381C87.2261 39.6013 87.2293 39.6659 87.2454 39.7279C87.2614 39.7898 87.29 39.8479 87.3293 39.8984C87.3685 39.9489 87.4177 39.9909 87.4738 40.0217C87.5778 40.0787 87.6997 40.0937 87.8144 40.0638C87.9292 40.0338 88.0281 39.9611 88.0909 39.8606C91.3701 34.6067 98.6519 33.6056 103.834 32.7914C105.27 32.5668 106.511 32.3714 107.521 32.1057C111.097 31.1907 113.656 28.7306 115.377 26.512C115.647 26.1641 115.558 25.6717 115.188 25.4338Z" fill="#FC8B0F"/>
</svg>
